<svg width="190" height="90" fill="none" xmlns="http://www.w3.org/2000/svg">
  <path d="M38.46 45.66c-.02.55 0 5.56 5.17 5.58 2.24 0 4.09-.64 6.08-1.58l30.87-14.94s2.35-1.14 2.35-3.9V12.06s-.21-2.94-3.58-3.6C72.02 7.04 59.31 5 52.6 5c-8.7 0-10.51.66-15.92 2.13-4.48 1.23-10.03 4.46-10.03 4.46s-9.52 4.47-12.71 8.43c-3.01 3.72-6.85 14.59-6.85 17.43 0 2.29 5.67 2.34 7.16 1.92 3.11-.91 8.35-12.23 8.35-12.23s9.8-4.7 14.85-4.7c2.17 0 7.58-.02 10.11-.02 2.53 0 6 2.61 7.44 5.56 1.13 2.31-12.19 11.85-14 12.98-1.34.84-2 2.5-2.3 3.6l-.23 1.11-.01-.01z" fill="#D5A47D" />
  <path d="M22.58 27.13s9.8-4.7 14.85-4.7c2.17 0 7.58-.02 10.11-.02.43 0 .89.08 1.36.22 2.29.68 4.88 2.9 6.08 5.35.01.03.03.06.03.09.03.08.04.18.03.27.1-.33 1.04-3.64.6-5.69-.49-2.29-2.4-6.07-6.71-5.93-7.59.25-13.31.92-13.31.92l-15.37 5.6s-1.44 5.84-4.76 12.31c-1.31 2.55-2.46 3.59-3.24 4.01.62 0 1.18-.05 1.6-.12.06-.01.11-.02.16-.03h.03c.05-.01.1-.02.14-.04h.02c3.11-.91 8.35-12.23 8.35-12.23l.03-.01zM71.78 33.83c-4.12 2.39-29.56 16.26-30.69 16.87.67.33 1.49.54 2.54.54 2.24 0 4.09-.64 6.08-1.58l30.87-14.93s.52-.25 1.06-.8a5.409 5.409 0 0 0 .48-.57c.03-.05.07-.1.1-.15.09-.13.17-.27.25-.43.05-.09.09-.19.13-.29a4.023 4.023 0 0 0 .2-.63c.07-.31.12-.66.12-1.03V15.97c-1.47 10.68-6.02 14.89-11.15 17.86h.01z" fill="#8D694B" />
</svg>